<?xml version="1.0" encoding="utf-8" standalone="no"?>
<!DOCTYPE svg PUBLIC "-//W3C//DTD SVG 1.1//EN"
  "http://www.w3.org/Graphics/SVG/1.1/DTD/svg11.dtd">
<!-- Created with matplotlib (https://matplotlib.org/) -->
<svg height="345.6pt" version="1.1" viewBox="0 0 460.8 345.6" width="460.8pt" xmlns="http://www.w3.org/2000/svg" xmlns:xlink="http://www.w3.org/1999/xlink">
 <defs>
  <style type="text/css">
*{stroke-linecap:butt;stroke-linejoin:round;}
  </style>
 </defs>
 <g id="figure_1">
  <g id="patch_1">
   <path d="M 0 345.6 
L 460.8 345.6 
L 460.8 0 
L 0 0 
z
" style="fill:#ffffff;"/>
  </g>
  <g id="axes_1">
   <g id="line2d_1">
    <path clip-path="url(#pd1774d88c1)" d="M 73.832727 214.848 
L 77.97259 183.404231 
L 80.123695 168.739019 
L 81.868932 158.276506 
L 83.370647 150.552062 
L 84.669427 144.958993 
L 85.80586 140.966603 
L 86.820533 138.154803 
L 87.713444 136.290658 
L 88.484595 135.151888 
L 89.174572 134.508757 
L 89.783376 134.238466 
L 90.351592 134.238466 
L 90.919809 134.482052 
L 91.528612 135.012492 
L 92.178002 135.883473 
L 92.949153 137.322166 
L 93.801478 139.413793 
L 94.775563 142.431056 
L 95.871409 146.59224 
L 97.129603 152.312023 
L 98.550144 159.877391 
L 100.17362 169.783859 
L 102.121791 183.112868 
L 104.719352 202.545995 
L 111.132081 251.175355 
L 113.161425 264.522663 
L 114.825488 274.063767 
L 116.246029 281.005172 
L 117.504223 286.11486 
L 118.600069 289.708023 
L 119.574154 292.197137 
L 120.426479 293.812527 
L 121.157043 294.770284 
L 121.806433 295.286626 
L 122.37465 295.478052 
L 122.902279 295.437641 
L 123.470496 295.159299 
L 124.079299 294.591807 
L 124.769276 293.614401 
L 125.540427 292.106999 
L 126.433339 289.825176 
L 127.407424 286.698766 
L 128.543857 282.247506 
L 129.802051 276.372326 
L 131.263179 268.413317 
L 132.927241 258.057073 
L 134.956586 243.943785 
L 137.757081 222.752102 
L 143.195725 181.375122 
L 145.306243 167.19317 
L 147.010893 157.159118 
L 148.472021 149.795508 
L 149.770801 144.335732 
L 150.907234 140.468114 
L 151.921907 137.772851 
L 152.774231 136.081599 
L 153.545382 135.012492 
L 154.194773 134.456586 
L 154.762989 134.230383 
L 155.290619 134.238466 
L 155.858835 134.482052 
L 156.467638 135.012492 
L 157.117029 135.883473 
L 157.88818 137.322166 
L 158.740504 139.413793 
L 159.71459 142.431056 
L 160.810436 146.59224 
L 162.068629 152.312023 
L 163.489171 159.877391 
L 165.112646 169.783859 
L 167.060817 183.112868 
L 169.658378 202.545995 
L 176.071107 251.175355 
L 178.100452 264.522663 
L 179.764514 274.063767 
L 181.185055 281.005172 
L 182.443249 286.11486 
L 183.539095 289.708023 
L 184.513181 292.197137 
L 185.365505 293.812527 
L 186.096069 294.770284 
L 186.74546 295.286626 
L 187.313676 295.478052 
L 187.841306 295.437641 
L 188.409522 295.159299 
L 189.018325 294.591807 
L 189.708303 293.614401 
L 190.479454 292.106999 
L 191.372365 289.825176 
L 192.346451 286.698766 
L 193.482884 282.247506 
L 194.741077 276.372326 
L 196.202205 268.413317 
L 197.866268 258.057073 
L 199.895612 243.943785 
L 202.696108 222.752102 
L 208.134751 181.375122 
L 210.24527 167.19317 
L 211.949919 157.159118 
L 213.411047 149.795508 
L 214.709828 144.335732 
L 215.846261 140.468114 
L 216.860933 137.772851 
L 217.713258 136.081599 
L 218.484409 135.012492 
L 219.133799 134.456586 
L 219.702015 134.230383 
L 220.229645 134.238466 
L 220.797862 134.482052 
L 221.406665 135.012492 
L 222.056055 135.883473 
L 222.827206 137.322166 
L 223.679531 139.413793 
L 224.653616 142.431056 
L 225.749462 146.59224 
L 227.007656 152.312023 
L 228.428197 159.877391 
L 230.051673 169.783859 
L 231.999844 183.112868 
L 234.597405 202.545995 
L 241.010134 251.175355 
L 243.039478 264.522663 
L 244.703541 274.063767 
L 246.124082 281.005172 
L 247.382276 286.11486 
L 248.478122 289.708023 
L 249.452207 292.197137 
L 250.304532 293.812527 
L 251.035096 294.770284 
L 251.684486 295.286626 
L 252.252702 295.478052 
L 252.780332 295.437641 
L 253.348549 295.159299 
L 253.957352 294.591807 
L 254.647329 293.614401 
L 255.41848 292.106999 
L 256.311392 289.825176 
L 257.285477 286.698766 
L 258.42191 282.247506 
L 259.680104 276.372326 
L 261.141232 268.413317 
L 262.805294 258.057073 
L 264.834639 243.943785 
L 267.635134 222.752102 
L 273.073778 181.375122 
L 275.184296 167.19317 
L 276.888946 157.159118 
L 278.350074 149.795508 
L 279.648854 144.335732 
L 280.785287 140.468114 
L 281.79996 137.772851 
L 282.652284 136.081599 
L 283.423435 135.012492 
L 284.072825 134.456586 
L 284.641042 134.230383 
L 285.168672 134.238466 
L 285.736888 134.482052 
L 286.345691 135.012492 
L 286.995082 135.883473 
L 287.766233 137.322166 
L 288.618557 139.413793 
L 289.592643 142.431056 
L 290.688489 146.59224 
L 291.946682 152.312023 
L 293.367224 159.877391 
L 294.990699 169.783859 
L 296.93887 183.112868 
L 299.536431 202.545995 
L 305.94916 251.175355 
L 307.978505 264.522663 
L 309.642567 274.063767 
L 311.063108 281.005172 
L 312.321302 286.11486 
L 313.417148 289.708023 
L 314.391233 292.197137 
L 315.243558 293.812527 
L 315.974122 294.770284 
L 316.623512 295.286626 
L 317.191729 295.478052 
L 317.719359 295.437641 
L 318.287575 295.159299 
L 318.896378 294.591807 
L 319.586356 293.614401 
L 320.357507 292.106999 
L 321.250418 289.825176 
L 322.224504 286.698766 
L 323.360936 282.247506 
L 324.61913 276.372326 
L 326.080258 268.413317 
L 327.744321 258.057073 
L 329.773665 243.943785 
L 332.574161 222.752102 
L 338.012804 181.375122 
L 340.123323 167.19317 
L 341.827972 157.159118 
L 343.2891 149.795508 
L 344.587881 144.335732 
L 345.724314 140.468114 
L 346.738986 137.772851 
L 347.591311 136.081599 
L 348.362462 135.012492 
L 349.011852 134.456586 
L 349.580068 134.230383 
L 350.107698 134.238466 
L 350.675914 134.482052 
L 351.284718 135.012492 
L 351.934108 135.883473 
L 352.705259 137.322166 
L 353.557584 139.413793 
L 354.531669 142.431056 
L 355.627515 146.59224 
L 356.885709 152.312023 
L 358.30625 159.877391 
L 359.929726 169.783859 
L 361.877897 183.112868 
L 364.475458 202.545995 
L 370.888186 251.175355 
L 372.917531 264.522663 
L 374.581594 274.063767 
L 376.002135 281.005172 
L 377.260328 286.11486 
L 378.356175 289.708023 
L 379.33026 292.197137 
L 380.182585 293.812527 
L 380.913149 294.770284 
L 381.562539 295.286626 
L 382.130755 295.478052 
L 382.658385 295.437641 
L 383.226602 295.159299 
L 383.835405 294.591807 
L 384.525382 293.614401 
L 385.296533 292.106999 
L 386.189445 289.825176 
L 387.16353 286.698766 
L 388.299963 282.247506 
L 389.558157 276.372326 
L 391.019285 268.413317 
L 392.683347 258.057073 
L 394.712692 243.943785 
L 397.513187 222.752102 
L 398.487273 215.164672 
L 398.487273 215.164672 
" style="fill:none;stroke:#800080;stroke-linecap:square;stroke-width:1.5;"/>
   </g>
   <g id="line2d_2">
    <path clip-path="url(#pd1774d88c1)" d="M 57.6 214.848 
L 414.72 214.848 
" style="fill:none;stroke:#008000;stroke-dasharray:5.55,2.4;stroke-dashoffset:0;stroke-width:1.5;"/>
   </g>
   <g id="line2d_3">
    <path clip-path="url(#pd1774d88c1)" d="M 57.6 53.568 
L 414.72 53.568 
" style="fill:none;stroke:#008000;stroke-linecap:square;stroke-width:1.5;"/>
   </g>
   <g id="legend_1">
    <g id="patch_2">
     <path d="M 268.071563 302.584 
L 407.72 302.584 
Q 409.72 302.584 409.72 300.584 
L 409.72 257.549625 
Q 409.72 255.549625 407.72 255.549625 
L 268.071563 255.549625 
Q 266.071563 255.549625 266.071563 257.549625 
L 266.071563 300.584 
Q 266.071563 302.584 268.071563 302.584 
z
" style="fill:#ffffff;opacity:0.8;stroke:#cccccc;stroke-linejoin:miter;"/>
    </g>
    <g id="line2d_4">
     <path d="M 270.071563 263.648062 
L 290.071563 263.648062 
" style="fill:none;stroke:#800080;stroke-linecap:square;stroke-width:1.5;"/>
    </g>
    <g id="line2d_5"/>
    <g id="text_1">
     <!-- Reality -->
     <defs>
      <path d="M 44.390625 34.1875 
Q 47.5625 33.109375 50.5625 29.59375 
Q 53.5625 26.078125 56.59375 19.921875 
L 66.609375 0 
L 56 0 
L 46.6875 18.703125 
Q 43.0625 26.03125 39.671875 28.421875 
Q 36.28125 30.8125 30.421875 30.8125 
L 19.671875 30.8125 
L 19.671875 0 
L 9.8125 0 
L 9.8125 72.90625 
L 32.078125 72.90625 
Q 44.578125 72.90625 50.734375 67.671875 
Q 56.890625 62.453125 56.890625 51.90625 
Q 56.890625 45.015625 53.6875 40.46875 
Q 50.484375 35.9375 44.390625 34.1875 
z
M 19.671875 64.796875 
L 19.671875 38.921875 
L 32.078125 38.921875 
Q 39.203125 38.921875 42.84375 42.21875 
Q 46.484375 45.515625 46.484375 51.90625 
Q 46.484375 58.296875 42.84375 61.546875 
Q 39.203125 64.796875 32.078125 64.796875 
z
" id="DejaVuSans-82"/>
      <path d="M 56.203125 29.59375 
L 56.203125 25.203125 
L 14.890625 25.203125 
Q 15.484375 15.921875 20.484375 11.0625 
Q 25.484375 6.203125 34.421875 6.203125 
Q 39.59375 6.203125 44.453125 7.46875 
Q 49.3125 8.734375 54.109375 11.28125 
L 54.109375 2.78125 
Q 49.265625 0.734375 44.1875 -0.34375 
Q 39.109375 -1.421875 33.890625 -1.421875 
Q 20.796875 -1.421875 13.15625 6.1875 
Q 5.515625 13.8125 5.515625 26.8125 
Q 5.515625 40.234375 12.765625 48.109375 
Q 20.015625 56 32.328125 56 
Q 43.359375 56 49.78125 48.890625 
Q 56.203125 41.796875 56.203125 29.59375 
z
M 47.21875 32.234375 
Q 47.125 39.59375 43.09375 43.984375 
Q 39.0625 48.390625 32.421875 48.390625 
Q 24.90625 48.390625 20.390625 44.140625 
Q 15.875 39.890625 15.1875 32.171875 
z
" id="DejaVuSans-101"/>
      <path d="M 34.28125 27.484375 
Q 23.390625 27.484375 19.1875 25 
Q 14.984375 22.515625 14.984375 16.5 
Q 14.984375 11.71875 18.140625 8.90625 
Q 21.296875 6.109375 26.703125 6.109375 
Q 34.1875 6.109375 38.703125 11.40625 
Q 43.21875 16.703125 43.21875 25.484375 
L 43.21875 27.484375 
z
M 52.203125 31.203125 
L 52.203125 0 
L 43.21875 0 
L 43.21875 8.296875 
Q 40.140625 3.328125 35.546875 0.953125 
Q 30.953125 -1.421875 24.3125 -1.421875 
Q 15.921875 -1.421875 10.953125 3.296875 
Q 6 8.015625 6 15.921875 
Q 6 25.140625 12.171875 29.828125 
Q 18.359375 34.515625 30.609375 34.515625 
L 43.21875 34.515625 
L 43.21875 35.40625 
Q 43.21875 41.609375 39.140625 45 
Q 35.0625 48.390625 27.6875 48.390625 
Q 23 48.390625 18.546875 47.265625 
Q 14.109375 46.140625 10.015625 43.890625 
L 10.015625 52.203125 
Q 14.9375 54.109375 19.578125 55.046875 
Q 24.21875 56 28.609375 56 
Q 40.484375 56 46.34375 49.84375 
Q 52.203125 43.703125 52.203125 31.203125 
z
" id="DejaVuSans-97"/>
      <path d="M 9.421875 75.984375 
L 18.40625 75.984375 
L 18.40625 0 
L 9.421875 0 
z
" id="DejaVuSans-108"/>
      <path d="M 9.421875 54.6875 
L 18.40625 54.6875 
L 18.40625 0 
L 9.421875 0 
z
M 9.421875 75.984375 
L 18.40625 75.984375 
L 18.40625 64.59375 
L 9.421875 64.59375 
z
" id="DejaVuSans-105"/>
      <path d="M 18.3125 70.21875 
L 18.3125 54.6875 
L 36.8125 54.6875 
L 36.8125 47.703125 
L 18.3125 47.703125 
L 18.3125 18.015625 
Q 18.3125 11.328125 20.140625 9.421875 
Q 21.96875 7.515625 27.59375 7.515625 
L 36.8125 7.515625 
L 36.8125 0 
L 27.59375 0 
Q 17.1875 0 13.234375 3.875 
Q 9.28125 7.765625 9.28125 18.015625 
L 9.28125 47.703125 
L 2.6875 47.703125 
L 2.6875 54.6875 
L 9.28125 54.6875 
L 9.28125 70.21875 
z
" id="DejaVuSans-116"/>
      <path d="M 32.171875 -5.078125 
Q 28.375 -14.84375 24.75 -17.8125 
Q 21.140625 -20.796875 15.09375 -20.796875 
L 7.90625 -20.796875 
L 7.90625 -13.28125 
L 13.1875 -13.28125 
Q 16.890625 -13.28125 18.9375 -11.515625 
Q 21 -9.765625 23.484375 -3.21875 
L 25.09375 0.875 
L 2.984375 54.6875 
L 12.5 54.6875 
L 29.59375 11.921875 
L 46.6875 54.6875 
L 56.203125 54.6875 
z
" id="DejaVuSans-121"/>
     </defs>
     <g transform="translate(298.071563 267.148062)scale(0.1 -0.1)">
      <use xlink:href="#DejaVuSans-82"/>
      <use x="69.419922" xlink:href="#DejaVuSans-101"/>
      <use x="130.943359" xlink:href="#DejaVuSans-97"/>
      <use x="192.222656" xlink:href="#DejaVuSans-108"/>
      <use x="220.005859" xlink:href="#DejaVuSans-105"/>
      <use x="247.789062" xlink:href="#DejaVuSans-116"/>
      <use x="286.998047" xlink:href="#DejaVuSans-121"/>
     </g>
    </g>
    <g id="line2d_6">
     <path d="M 270.071563 278.326188 
L 290.071563 278.326188 
" style="fill:none;stroke:#008000;stroke-dasharray:5.55,2.4;stroke-dashoffset:0;stroke-width:1.5;"/>
    </g>
    <g id="line2d_7"/>
    <g id="text_2">
     <!-- Expectations=Reality -->
     <defs>
      <path d="M 9.8125 72.90625 
L 55.90625 72.90625 
L 55.90625 64.59375 
L 19.671875 64.59375 
L 19.671875 43.015625 
L 54.390625 43.015625 
L 54.390625 34.71875 
L 19.671875 34.71875 
L 19.671875 8.296875 
L 56.78125 8.296875 
L 56.78125 0 
L 9.8125 0 
z
" id="DejaVuSans-69"/>
      <path d="M 54.890625 54.6875 
L 35.109375 28.078125 
L 55.90625 0 
L 45.3125 0 
L 29.390625 21.484375 
L 13.484375 0 
L 2.875 0 
L 24.125 28.609375 
L 4.6875 54.6875 
L 15.28125 54.6875 
L 29.78125 35.203125 
L 44.28125 54.6875 
z
" id="DejaVuSans-120"/>
      <path d="M 18.109375 8.203125 
L 18.109375 -20.796875 
L 9.078125 -20.796875 
L 9.078125 54.6875 
L 18.109375 54.6875 
L 18.109375 46.390625 
Q 20.953125 51.265625 25.265625 53.625 
Q 29.59375 56 35.59375 56 
Q 45.5625 56 51.78125 48.09375 
Q 58.015625 40.1875 58.015625 27.296875 
Q 58.015625 14.40625 51.78125 6.484375 
Q 45.5625 -1.421875 35.59375 -1.421875 
Q 29.59375 -1.421875 25.265625 0.953125 
Q 20.953125 3.328125 18.109375 8.203125 
z
M 48.6875 27.296875 
Q 48.6875 37.203125 44.609375 42.84375 
Q 40.53125 48.484375 33.40625 48.484375 
Q 26.265625 48.484375 22.1875 42.84375 
Q 18.109375 37.203125 18.109375 27.296875 
Q 18.109375 17.390625 22.1875 11.75 
Q 26.265625 6.109375 33.40625 6.109375 
Q 40.53125 6.109375 44.609375 11.75 
Q 48.6875 17.390625 48.6875 27.296875 
z
" id="DejaVuSans-112"/>
      <path d="M 48.78125 52.59375 
L 48.78125 44.1875 
Q 44.96875 46.296875 41.140625 47.34375 
Q 37.3125 48.390625 33.40625 48.390625 
Q 24.65625 48.390625 19.8125 42.84375 
Q 14.984375 37.3125 14.984375 27.296875 
Q 14.984375 17.28125 19.8125 11.734375 
Q 24.65625 6.203125 33.40625 6.203125 
Q 37.3125 6.203125 41.140625 7.25 
Q 44.96875 8.296875 48.78125 10.40625 
L 48.78125 2.09375 
Q 45.015625 0.34375 40.984375 -0.53125 
Q 36.96875 -1.421875 32.421875 -1.421875 
Q 20.0625 -1.421875 12.78125 6.34375 
Q 5.515625 14.109375 5.515625 27.296875 
Q 5.515625 40.671875 12.859375 48.328125 
Q 20.21875 56 33.015625 56 
Q 37.15625 56 41.109375 55.140625 
Q 45.0625 54.296875 48.78125 52.59375 
z
" id="DejaVuSans-99"/>
      <path d="M 30.609375 48.390625 
Q 23.390625 48.390625 19.1875 42.75 
Q 14.984375 37.109375 14.984375 27.296875 
Q 14.984375 17.484375 19.15625 11.84375 
Q 23.34375 6.203125 30.609375 6.203125 
Q 37.796875 6.203125 41.984375 11.859375 
Q 46.1875 17.53125 46.1875 27.296875 
Q 46.1875 37.015625 41.984375 42.703125 
Q 37.796875 48.390625 30.609375 48.390625 
z
M 30.609375 56 
Q 42.328125 56 49.015625 48.375 
Q 55.71875 40.765625 55.71875 27.296875 
Q 55.71875 13.875 49.015625 6.21875 
Q 42.328125 -1.421875 30.609375 -1.421875 
Q 18.84375 -1.421875 12.171875 6.21875 
Q 5.515625 13.875 5.515625 27.296875 
Q 5.515625 40.765625 12.171875 48.375 
Q 18.84375 56 30.609375 56 
z
" id="DejaVuSans-111"/>
      <path d="M 54.890625 33.015625 
L 54.890625 0 
L 45.90625 0 
L 45.90625 32.71875 
Q 45.90625 40.484375 42.875 44.328125 
Q 39.84375 48.1875 33.796875 48.1875 
Q 26.515625 48.1875 22.3125 43.546875 
Q 18.109375 38.921875 18.109375 30.90625 
L 18.109375 0 
L 9.078125 0 
L 9.078125 54.6875 
L 18.109375 54.6875 
L 18.109375 46.1875 
Q 21.34375 51.125 25.703125 53.5625 
Q 30.078125 56 35.796875 56 
Q 45.21875 56 50.046875 50.171875 
Q 54.890625 44.34375 54.890625 33.015625 
z
" id="DejaVuSans-110"/>
      <path d="M 44.28125 53.078125 
L 44.28125 44.578125 
Q 40.484375 46.53125 36.375 47.5 
Q 32.28125 48.484375 27.875 48.484375 
Q 21.1875 48.484375 17.84375 46.4375 
Q 14.5 44.390625 14.5 40.28125 
Q 14.5 37.15625 16.890625 35.375 
Q 19.28125 33.59375 26.515625 31.984375 
L 29.59375 31.296875 
Q 39.15625 29.25 43.1875 25.515625 
Q 47.21875 21.78125 47.21875 15.09375 
Q 47.21875 7.46875 41.1875 3.015625 
Q 35.15625 -1.421875 24.609375 -1.421875 
Q 20.21875 -1.421875 15.453125 -0.5625 
Q 10.6875 0.296875 5.421875 2 
L 5.421875 11.28125 
Q 10.40625 8.6875 15.234375 7.390625 
Q 20.0625 6.109375 24.8125 6.109375 
Q 31.15625 6.109375 34.5625 8.28125 
Q 37.984375 10.453125 37.984375 14.40625 
Q 37.984375 18.0625 35.515625 20.015625 
Q 33.0625 21.96875 24.703125 23.78125 
L 21.578125 24.515625 
Q 13.234375 26.265625 9.515625 29.90625 
Q 5.8125 33.546875 5.8125 39.890625 
Q 5.8125 47.609375 11.28125 51.796875 
Q 16.75 56 26.8125 56 
Q 31.78125 56 36.171875 55.265625 
Q 40.578125 54.546875 44.28125 53.078125 
z
" id="DejaVuSans-115"/>
      <path d="M 10.59375 45.40625 
L 73.1875 45.40625 
L 73.1875 37.203125 
L 10.59375 37.203125 
z
M 10.59375 25.484375 
L 73.1875 25.484375 
L 73.1875 17.1875 
L 10.59375 17.1875 
z
" id="DejaVuSans-61"/>
     </defs>
     <g transform="translate(298.071563 281.826188)scale(0.1 -0.1)">
      <use xlink:href="#DejaVuSans-69"/>
      <use x="63.183594" xlink:href="#DejaVuSans-120"/>
      <use x="122.363281" xlink:href="#DejaVuSans-112"/>
      <use x="185.839844" xlink:href="#DejaVuSans-101"/>
      <use x="247.363281" xlink:href="#DejaVuSans-99"/>
      <use x="302.34375" xlink:href="#DejaVuSans-116"/>
      <use x="341.552734" xlink:href="#DejaVuSans-97"/>
      <use x="402.832031" xlink:href="#DejaVuSans-116"/>
      <use x="442.041016" xlink:href="#DejaVuSans-105"/>
      <use x="469.824219" xlink:href="#DejaVuSans-111"/>
      <use x="531.005859" xlink:href="#DejaVuSans-110"/>
      <use x="594.384766" xlink:href="#DejaVuSans-115"/>
      <use x="646.484375" xlink:href="#DejaVuSans-61"/>
      <use x="730.273438" xlink:href="#DejaVuSans-82"/>
      <use x="799.693359" xlink:href="#DejaVuSans-101"/>
      <use x="861.216797" xlink:href="#DejaVuSans-97"/>
      <use x="922.496094" xlink:href="#DejaVuSans-108"/>
      <use x="950.279297" xlink:href="#DejaVuSans-105"/>
      <use x="978.0625" xlink:href="#DejaVuSans-116"/>
      <use x="1017.271484" xlink:href="#DejaVuSans-121"/>
     </g>
    </g>
    <g id="line2d_8">
     <path d="M 270.071563 293.004312 
L 290.071563 293.004312 
" style="fill:none;stroke:#008000;stroke-linecap:square;stroke-width:1.5;"/>
    </g>
    <g id="line2d_9"/>
    <g id="text_3">
     <!-- Expectations&gt;Reality -->
     <defs>
      <path d="M 10.59375 49.21875 
L 10.59375 58.109375 
L 73.1875 35.40625 
L 73.1875 27.296875 
L 10.59375 4.59375 
L 10.59375 13.484375 
L 60.890625 31.296875 
z
" id="DejaVuSans-62"/>
     </defs>
     <g transform="translate(298.071563 296.504312)scale(0.1 -0.1)">
      <use xlink:href="#DejaVuSans-69"/>
      <use x="63.183594" xlink:href="#DejaVuSans-120"/>
      <use x="122.363281" xlink:href="#DejaVuSans-112"/>
      <use x="185.839844" xlink:href="#DejaVuSans-101"/>
      <use x="247.363281" xlink:href="#DejaVuSans-99"/>
      <use x="302.34375" xlink:href="#DejaVuSans-116"/>
      <use x="341.552734" xlink:href="#DejaVuSans-97"/>
      <use x="402.832031" xlink:href="#DejaVuSans-116"/>
      <use x="442.041016" xlink:href="#DejaVuSans-105"/>
      <use x="469.824219" xlink:href="#DejaVuSans-111"/>
      <use x="531.005859" xlink:href="#DejaVuSans-110"/>
      <use x="594.384766" xlink:href="#DejaVuSans-115"/>
      <use x="646.484375" xlink:href="#DejaVuSans-62"/>
      <use x="730.273438" xlink:href="#DejaVuSans-82"/>
      <use x="799.693359" xlink:href="#DejaVuSans-101"/>
      <use x="861.216797" xlink:href="#DejaVuSans-97"/>
      <use x="922.496094" xlink:href="#DejaVuSans-108"/>
      <use x="950.279297" xlink:href="#DejaVuSans-105"/>
      <use x="978.0625" xlink:href="#DejaVuSans-116"/>
      <use x="1017.271484" xlink:href="#DejaVuSans-121"/>
     </g>
    </g>
   </g>
  </g>
 </g>
 <defs>
  <clipPath id="pd1774d88c1">
   <rect height="266.112" width="357.12" x="57.6" y="41.472"/>
  </clipPath>
 </defs>
</svg>
